<svg width="500" height="375" viewBox="0 0 500 375" xmlns="http://www.w3.org/2000/svg">
  <!-- Background Rectangle for Data Table -->
  <rect x="50" y="50" width="400" height="250" fill="#F2F2F2" stroke="#B0B0B0" stroke-width="5" rx="12" />

  <!-- Table Rows -->
  <line x1="50" y1="125" x2="450" y2="125" stroke="#B0B0B0" stroke-width="2.5" />
  <line x1="50" y1="200" x2="450" y2="200" stroke="#B0B0B0" stroke-width="2.5" />
  <line x1="50" y1="275" x2="450" y2="275" stroke="#B0B0B0" stroke-width="2.5" />

  <!-- Table Columns -->
  <line x1="175" y1="50" x2="175" y2="300" stroke="#B0B0B0" stroke-width="2.5" />
  <line x1="325" y1="50" x2="325" y2="300" stroke="#B0B0B0" stroke-width="2.5" />

  <!-- Data Cells (Random dots representing raw data) -->
  <circle cx="112.5" cy="87.5" r="10" fill="#A259FF" />
  <circle cx="250" cy="162.5" r="10" fill="#FF7262" />
  <circle cx="375" cy="237.5" r="10" fill="#1ABCFE" />
  <circle cx="112.5" cy="262.5" r="10" fill="#0ACF83" />
  <circle cx="250" cy="87.5" r="10" fill="#F24E1E" />
  <circle cx="375" cy="162.5" r="10" fill="#FFD700" />

  <!-- Cleaning Brush Icon -->
  <rect x="75" y="325" width="37.5" height="20" fill="#FFD700" />
  <rect x="82.5" y="345" width="22.5" height="10" fill="#FFD700" />
  <rect x="82.5" y="360" width="22.5" height="5" fill="#B0B0B0" />

  <!-- Funnel Icon (For filtering) -->
  <polygon points="375,325 400,325 387.5,350" fill="#FF7262" />
  <rect x="382.5" y="350" width="10" height="25" fill="#FF7262" />
</svg>
